<?xml version="1.0" encoding="utf-8"?><svg xmlns="http://www.w3.org/2000/svg" viewBox="0 0 54 54"><path d="M38 33.5v4c0 .8-.7 1.5-1.5 1.5h-19c-.8 0-1.5-.7-1.5-1.5v-4c0-.8-.7-1.5-1.5-1.5H.2c-.1 0-.2.1-.2.2v16.1C0 49.8 1.2 51 2.6 51h48.7c1.4 0 2.6-1.2 2.6-2.6V32.2c0-.1-.1-.2-.2-.2H39.5c-.8 0-1.5.7-1.5 1.5z" fill="#efce4a"/><path d="M44 3H10L0 32v.2c0-.1.1-.2.2-.2h14.3c.8 0 1.5.7 1.5 1.5v4c0 .8.7 1.5 1.5 1.5h19c.8 0 1.5-.7 1.5-1.5v-4c0-.8.7-1.5 1.5-1.5h14.3c.1 0 .2.1.2.2V32L44 3z" fill="#ebba17"/><path d="M14.5 32c.8 0 1.5.7 1.5 1.5v4c0 .8.7 1.5 1.5 1.5h19c.8 0 1.5-.7 1.5-1.5v-4c0-.8.7-1.5 1.5-1.5H46v-8H8v8h6.5z" fill="#f2ecbf"/><path fill="#d8d1ab" d="M11 16h32v8H11z"/><path fill="#bab395" d="M14 8h26v8H14z"/></svg>
