<?xml version="1.0" standalone="no"?>
<!DOCTYPE svg PUBLIC "-//W3C//DTD SVG 20010904//EN"
 "http://www.w3.org/TR/2001/REC-SVG-20010904/DTD/svg10.dtd">
<svg version="1.0" xmlns="http://www.w3.org/2000/svg"
 width="700.000000pt" height="700.000000pt" viewBox="0 0 700.000000 700.000000"
 preserveAspectRatio="xMidYMid meet">
<metadata>
Created by potrace 1.11, written by Peter Selinger 2001-2013
</metadata>
<g transform="translate(0.000000,700.000000) scale(0.100000,-0.100000)"
fill="#000000" stroke="none">
<path d="M2267 5904 c-1 -1 -24 -4 -52 -8 -267 -31 -556 -163 -754 -342 -60
-55 -176 -201 -356 -449 -43 -60 -83 -114 -88 -120 -32 -37 -278 -393 -422
-610 -318 -480 -483 -778 -566 -1020 l-24 -70 0 -960 c0 -932 1 -962 20 -1013
35 -96 106 -160 215 -198 53 -18 143 -19 3183 -20 3195 -1 3190 -1 3327 34
117 30 181 92 222 217 l23 70 0 960 c0 528 -3 974 -6 990 -15 69 -56 169 -130
320 -75 154 -243 446 -261 453 -4 2 -8 8 -8 13 0 8 -212 328 -307 464 -76 109
-335 467 -343 475 -3 3 -39 50 -80 105 -208 278 -261 339 -360 420 -139 113
-278 194 -413 239 -164 55 -144 55 -1535 53 -706 -1 -1284 -3 -1285 -3z m2313
-449 c186 -29 329 -74 410 -130 85 -59 197 -214 310 -430 118 -226 223 -425
280 -530 21 -38 62 -117 93 -175 30 -58 70 -134 89 -170 174 -325 215 -409
227 -458 28 -127 -26 -222 -149 -264 -44 -15 -107 -17 -547 -18 -582 -1 -573
0 -669 -44 -107 -49 -199 -178 -223 -312 -6 -32 -17 -96 -25 -142 -38 -208
-166 -346 -343 -370 -32 -4 -290 -7 -573 -6 -440 1 -525 3 -583 17 -181 44
-224 102 -277 369 -58 290 -98 365 -235 432 -107 53 -130 55 -690 58 l-520 3
-55 27 c-86 42 -122 104 -115 199 4 53 47 150 128 294 43 76 126 224 162 290
15 28 35 64 45 80 10 17 32 57 50 90 48 88 67 123 233 420 83 149 164 295 180
325 123 225 303 414 427 446 67 18 2252 16 2370 -1z"/>
<path d="M2494 5016 c-167 -41 -278 -173 -300 -358 l-6 -48 1311 0 1311 0 0
30 c0 48 -29 122 -72 178 -45 61 -149 134 -255 178 l-68 29 -935 2 c-719 1
-947 -1 -986 -11z"/>
<path d="M2090 4147 c-179 -25 -314 -175 -334 -369 l-5 -44 1742 0 1742 1 -3
40 c-9 118 -118 245 -273 317 -142 67 -15 61 -1485 62 -732 1 -1355 -2 -1384
-7z"/>
</g>
</svg>
